<?xml version="1.0" encoding="UTF-8"?>
<svg class="mysvg" enable-background="new 0 0 128 128" version="1.1" viewBox="0 0 128 128" xml:space="preserve" xmlns="http://www.w3.org/2000/svg">
	<path d="m81 101.85c0-1.573-1.275-2.848-2.848-2.848h-29.305c-1.572 0-2.847 1.275-2.847 2.848v0.305c0 1.573 1.275 2.848 2.847 2.848h29.305c1.573 0 2.848-1.275 2.848-2.848v-0.305z"/>
	<path d="m81 108.85c0-1.573-1.275-2.848-2.848-2.848h-29.305c-1.573 0-2.847 1.275-2.847 2.848v0.305c0 1.573 1.275 2.848 2.847 2.848h29.305c1.573 0 2.848-1.275 2.848-2.848v-0.305z"/>
	<path d="m81 115.85c0-1.573-1.275-2.848-2.848-2.848h-29.305c-1.573 0-2.847 1.275-2.847 2.848v0.305c0 1.573 1.275 2.848 2.847 2.848h29.305c1.573 0 2.848-1.275 2.848-2.848v-0.305z"/>
	<path d="m63.415 124.49c3.983 0 7.56-1.486 10.021-4.486h-20.042c2.461 3 6.038 4.486 10.021 4.486z"/>
	<path d="m96.065 50h-5e-3c1.154-4 1.78-7.219 1.78-11.043 0-18.965-15.375-34.393-34.34-34.393s-34.34 15.454-34.34 34.419c0 3.824 0.626 7.017 1.78 11.017h-5e-3c7e-3 0 0.015-0.071 0.022-0.053 0.957 2.835 2.323 5.451 3.946 7.9 4.952 8.966 10.097 15.679 11.097 29.951v5.114c0 2.816 2.188 5.088 5.005 5.088h24.82c2.817 0 5.1-2.277 5.1-5.094 0-17.894 5.71-25.139 11.22-35.115 1.623-2.449 2.942-5.011 3.899-7.846 7e-3 -0.017 0.014 0.055 0.021 0.055z"/>
</svg>
