<?xml version="1.0" encoding="UTF-8"?>
<!DOCTYPE svg  PUBLIC '-//W3C//DTD SVG 1.1//EN'  'http://www.w3.org/Graphics/SVG/1.1/DTD/svg11.dtd'>
<svg class="mysvg" enable-background="new 0 0 1661.452 1704.121" version="1.1" viewBox="0 0 1661.452 1704.121" xml:space="preserve" xmlns="http://www.w3.org/2000/svg">
	<path d="m106.26 500.31c-9.268 0.041-16.83 2.103-24.527 3.165-3.071 0.424-6.078 1.462-9.153 1.678-9.64 0.677-13.185 7.85-16.678 15.165-0.646 1.352-0.292 2.527 0.542 3.727 0.9 1.295 1.892 2.431 3.179 3.366 1.328 0.965 4.058 1.677 2.794 3.723-1.37 2.217-3.517 0.573-5.159-0.541-2.444-1.658-4.337-3.84-5.569-6.511-1.425-3.087-1.344-6.066 1.212-8.62 3.441-3.439 6.84-6.895 9.65-10.909 1.929-2.756 4.912-3.722 8.147-3.905 5.092-0.288 10.086-1.442 15.257-1.216 6.071 0.266 11.569-3.031 17.607-3.405 1.537-0.095 3.103-0.732 4.61-0.227 13.287 4.451 27.44 5.035 40.798 9.407 7.509 2.458 15.645 2.928 23.403 4.711 15.807 3.633 31.463 7.973 47.347 11.21 12.041 2.454 23.314 7.18 35.059 10.302 9.615 2.557 19.407 4.652 28.774 7.943 10.678 3.752 21.697 6.302 32.436 9.845 8.127 2.681 16.157 6.047 24.706 7.64 10.093 1.881 19.216 6.825 28.977 9.825 20.127 6.187 40.236 12.435 60.281 18.884 6.141 1.976 12.498 2.961 18.633 4.642 16.083 4.409 32.706 6.07 48.772 10.505 8.943 2.469 18.21 3.759 27.33 5.589 1.518 0.305 3.035 0.62 4.538 0.991 15.94 3.931 32.013 7.261 47.876 11.587 17.328 4.726 35.01 8.145 52.492 12.324 11 2.629 21.921 5.589 32.866 8.443 2.454 0.64 4.122 2.456 5.97 4.096 12.842 11.397 23.617 24.748 35.381 37.162 11.315 11.939 21.784 24.631 33.057 36.625 12.005 12.774 23.154 26.369 34.354 39.873 3.399 4.098 6.553 6.572 12.217 5.15 7.75-1.946 15.62-3.479 23.503-4.802 3.642-0.611 4.261-2.499 3.684-5.514-1.546-8.081-3.032-16.176-4.699-24.232-5.308-25.657-10.773-51.281-16.014-76.951-4.764-23.334-10.422-46.423-18.009-69.014-0.354-1.054-1.03-2.105-1.029-3.157 3e-3 -11.929-6.898-21.365-11.606-31.495-8.519-18.332-17.848-36.285-26.559-54.53-8.322-17.43-16.968-34.684-25.991-51.762-7.779-14.723-15.048-29.715-22.673-44.52-4.579-8.892-9.116-17.829-14.259-26.394-2.228-3.709-3.326-7.707-4.914-11.562-9.896-24.028-18.961-48.422-29.619-72.102-6.561-14.578-12.789-29.316-19.452-43.857-9.614-20.982-19.696-41.779-27.445-63.614-4.449-12.536-10.517-24.489-15.572-36.821-7.079-17.268-14.617-34.363-20.153-52.234-1.326-4.28-4.025-7.903-6.451-11.631-3.524-5.416-6.772-10.981-8.905-17.122-0.364-1.05-0.796-2.094-0.997-3.178-0.403-2.179-1.098-5.11 1.327-5.9 2.122-0.691 3.422 2.198 3.736 3.937 2.305 12.802 12.075 22.119 15.745 34.26 1.411 4.669 3.381 9.173 4.715 13.86 2.752 9.674 7.814 18.365 11.495 27.649 8.507 21.462 17.436 42.762 26.51 63.992 7.954 18.609 16.326 37.04 24.537 55.539 8.114 18.279 16.404 36.482 24.341 54.838 6.516 15.07 12.586 30.333 18.946 45.471 1.707 4.063 3.479 8.031 6.55 11.471 2.297 2.573 3.621 6.083 5.11 9.299 12.321 26.611 26.134 52.477 39.258 78.687 8.858 17.689 17.803 35.327 26.207 53.244 6.886 14.68 14.482 29.027 21.724 43.542 2.974 5.961 6.154 11.848 8.65 18.008 1.608 3.969 5.082 6.486 6.433 10.767 4.226 13.392 7.095 27.107 10.09 40.762 4.858 22.151 9 44.462 13.238 66.745 2.116 11.126 3.646 22.361 5.676 33.505 1.75 9.605 3.815 19.154 5.806 28.714 0.169 0.811 0.652 1.893 1.296 2.196 1.214 0.57 2.107-0.471 2.537-1.474 2.612-6.097 7.897-11.005 7.065-18.65-0.622-5.721 2.393-10.013 8.344-11.087 3.828-0.691 4.568-2.998 4.496-6.141-0.141-6.136-0.316-11.879-3.403-17.9-3.976-7.757-7.377-16.098-8.989-24.929-0.63-3.45-2.487-6.615-3.786-9.868-4.92-12.319-7.508-25.518-14.026-37.225-0.412-0.74-0.547-1.667-0.66-2.527-0.087-0.655 0.199-1.334 0.908-1.507 0.36-0.088 0.969 0.061 1.189 0.329 0.696 0.847 1.406 1.735 1.855 2.723 4.883 10.735 9.236 21.648 12.437 33.044 4.69 16.697 12.255 32.26 19.734 47.834 0.181 0.377 0.524 0.91 0.839 0.946 1.317 0.149 1.048-1.056 1.355-1.776 5.818-13.66 10.787-27.589 14.373-42.035 1.593-6.417 4.323-12.54 5.896-19.006 0.914-3.755 3.019-7.079 5.518-9.808 5.883-6.423 8.082-14.137 9.159-22.419 0.372-2.865 0.968-5.704 1.252-8.576 0.73-7.367 3.167-13.846 6.918-20.446 9.018-15.868 18.626-31.355 28.139-46.913 18.443-30.163 36.628-60.485 55.352-90.473 10.946-17.531 21.157-35.617 33.15-52.374 10.474-14.634 17.337-30.93 25.559-46.569 10.956-20.839 21.023-42.165 32.176-62.91 8.833-16.428 17.761-32.802 26.22-49.427 9.466-18.602 18.999-37.172 28.287-55.863 9.368-18.851 19.56-37.306 27.449-56.88 1.06-2.63 3.024-4.901 4.601-7.317 4.148-6.35 7.326-13.198 10.41-20.098 0.541-1.211 1.113-2.422 1.818-3.54 0.48-0.761 1.308-1.184 2.278-1.045 1.13 0.162 1.282 1.117 1.432 1.969 0.659 3.734-0.563 7.119-2.454 10.163-3.51 5.653-6.822 11.422-10.868 16.76-5.409 7.138-8.176 15.725-11.856 23.772-6.476 14.162-14.48 27.535-21.097 41.593-6.15 13.065-13.32 25.604-19.325 38.726-6.109 13.348-13.315 26.124-20.223 39.054-6.586 12.328-13.561 24.435-19.687 37.025-6.416 13.186-12.845 26.383-20.072 39.17-2.946 5.211-5.419 10.701-7.926 16.147-5.939 12.903-12.694 25.404-18.52 38.376-2.974 6.623-7.491 12.611-11.706 18.607-9.21 13.099-17.714 26.657-26.327 40.138-11.477 17.964-22.809 36.029-33.806 54.29-14.569 24.191-28.763 48.609-43.094 72.944-1.24 2.106-2.327 4.305-3.437 6.485-1.19 2.337-1.893 4.473-1.535 7.463 0.486 4.06-1.206 8.327-1.274 12.517-0.138 8.575-3.914 16.308-5.146 24.653-1.888 12.788-2.234 25.696-3.87 38.487-2.259 17.653-2.55 35.472-4.677 53.154-1.431 11.893-1.303 23.969-2.091 35.948-0.225 3.413 1.074 4.484 4.247 5.294 11.852 3.025 23.922 4.921 35.885 7.36 4.116 0.839 7.83 0.09 10.896-3.242 10.536-11.446 22.273-21.686 33.004-32.964 10.859-11.413 22.525-22.061 33.873-33.006 8.474-8.173 16.965-16.328 25.524-24.412 5.979-5.647 12.086-11.158 18.134-16.732 2.287-2.108 4.65-2.523 7.906-1.906 12.789 2.424 24.539 7.791 36.58 12.312 12.047 4.523 23.96 9.403 35.929 14.137 17.337 6.857 34.87 13.208 51.736 21.249 11.572 5.517 23.582 10.115 35.152 15.636 10.196 4.866 21.006 7.974 31.441 12.125 1.967 0.782 3.618 0.309 5.085-0.465 6.374-3.362 13.416-4.7 20.231-6.534 6.865-1.848 13.481-4.358 20.17-6.624 18.263-6.185 36.41-12.695 54.934-18.105 9.098-2.657 18.019-5.92 27.027-8.885 13.669-4.499 27.303-9.108 41.029-13.424 11.849-3.726 23.351-8.39 35.058-12.458 10.712-3.722 20.761-9.137 31.759-11.999 3.323-0.865 5.875-3.069 8.921-4.395 10.788-4.697 21.954-8.423 32.829-12.874 9.048-3.703 17.735-8.285 26.769-12.027 12.664-5.245 23.326-13.711 34.802-20.87 6.773-4.225 13.51-8.51 20.362-12.602 2.076-1.24 4.41-1.797 5.187-4.655 0.604-2.222 2.748-1.814 4.521-1.511 2.042 0.349 3.077 1.619 3.147 3.681 0.062 1.82-0.914 2.89-2.54 3.481-9.657 3.505-18.365 8.88-27.083 14.144-7.207 4.351-13.723 9.881-21.047 13.993-12.582 7.063-25.561 13.45-39.239 18.179-9.268 3.205-17.983 7.669-27.046 11.34-15.44 6.253-30.646 13.08-46.057 19.407-7.39 3.034-15.006 5.523-22.551 8.167-5.455 1.912-11.064 3.417-16.426 5.554-12.822 5.109-26.182 8.552-39.216 12.998-17.467 5.958-34.967 11.82-52.493 17.598-26.156 8.623-52.363 17.093-78.506 25.757-3.135 1.039-5.736 0.057-8.336-1.09-8.125-3.584-16.248-7.187-24.231-11.073-10.205-4.968-20.729-9.223-30.99-14.035-18.322-8.592-36.973-16.38-55.791-23.771-16.34-6.418-32.768-12.624-49.271-18.61-5.031-1.825-9.831-4.152-14.853-5.966-2.279-0.823-3.812-0.736-5.944 0.976-19.61 15.752-38.323 32.47-56.23 50.144-13.599 13.423-27.762 26.273-41.608 39.447-4.189 3.986-8.239 8.128-12.193 12.348-2.219 2.368-1.577 3.927 1.637 4.318 22.501 2.734 45.026 5.282 67.507 8.176 17.424 2.243 34.805 4.825 52.185 7.395 30.369 4.489 60.359 10.809 89.844 19.365 8.092 2.348 16.164 5.003 23.044 10.257 2.244 1.713 4.003 3.455 3.624 6.586-0.417 3.452-3.18 3.933-5.705 4.72-4.276 1.332-8.628 2.322-13.133 1.601-18.883-3.024-37.99-4.406-56.854-7.409-15.97-2.542-32.13-3.716-47.848-8.473-10.95-3.314-22.833-3.283-34.401-3.591-6.708-0.179-13.333-0.744-19.732-2.901-3.255-1.097-6.498-1.318-9.837-0.352-3.964 1.147-7.887 0.862-11.836-0.338-7.684-2.334-15.873-1.987-23.57-4.39-8.057-2.515-16.193-4.775-24.264-7.243-2.992-0.915-5.838-2.272-8.194-4.376-2.147-1.918-4-1.349-5.854 0.317-5.64 5.068-10.653 10.706-15.208 16.761-1.177 1.565-0.688 2.338 1.142 2.579 0.878 0.116 1.775 0.236 2.608 0.517 2.222 0.75 4.166 1.759 3.6 4.696-0.542 2.811-2.232 4.142-5.07 4.354-3.054 0.228-5.036-1.256-6.668-3.593-1.323-1.894-2.55-1.801-4.269-0.134-4.785 4.643-9.767 9.082-14.687 13.586-2.455 2.248-4.903 4.41-7.959 5.973-3.863 1.976-4.672 5.77-2.482 9.607 1.33 2.329 3.061 4.279 5.448 5.73 8.733 5.308 17.465 10.629 26.038 16.189 8.387 5.439 16.613 11.127 24.485 17.31 9.265 7.277 18.588 14.48 27.88 21.724 13.328 10.39 26.702 20.721 39.962 31.196 18.139 14.33 36.075 28.91 54.644 42.697 12.316 9.144 24.268 18.78 36.369 28.213 2.156 1.681 3.393 3.807 4.19 6.56 8.226 28.409 13.738 57.462 20.733 86.16 4.372 17.937 9.028 35.801 12.527 53.936 1.009 5.227 2.01 10.464 2.733 15.734 1.061 7.731 3.125 15.208 5.235 22.686 0.805 2.853 1.962 5.758 4.353 7.34 4.757 3.148 7.768 7.901 11.781 11.707 9.316 8.834 18.837 17.477 27.743 26.711 7.385 7.657 15.861 14.131 22.865 22.217 3.413 3.939 7.165 7.778 11.455 10.977 4.976 3.712 8.593 8.861 13.326 12.932 6.196 5.329 12.334 10.866 17.932 16.781 6.709 7.089 15.182 12.176 21.263 19.911 3.009 3.827 7.347 6.363 10.915 9.708 8.071 7.564 16.064 15.231 24.265 22.635 10.837 9.784 21.489 19.775 32.442 29.429 16.803 14.811 33.16 30.066 49.041 45.885 13.784 13.73 27.243 27.811 42.104 40.495 5.628 4.803 10.543 10.708 16.026 15.862 6.944 6.527 13.732 13.26 21.084 19.302 7.227 5.939 14.196 11.906 19.825 19.531 4.164 5.642 8.8 11.072 14.253 15.633 11.256 9.414 12.982 22.043 12.09 35.569-0.075 1.139-0.396 2.318-1.395 2.912-4.078 2.427-8.374 4.162-13.274 3.385-1.15-0.182-2.125-0.726-2.242-2.062-0.125-1.421 0.944-1.9 2.006-2.223 0.84-0.255 1.745-0.306 2.625-0.411 6.82-0.817 7.262-1.292 7.465-8.195 0.033-1.112-0.089-2.233 4e-3 -3.338 0.66-7.799-2.079-14.027-7.563-19.703-6.928-7.17-12.564-15.642-19.79-22.458-9.173-8.654-17.9-17.796-27.636-25.881-6.614-5.492-12.706-11.619-18.958-17.54-8.391-7.948-16.728-15.955-25.054-23.972-3.519-3.388-6.948-6.869-10.423-10.303-16.882-16.687-33.865-33.284-51.842-48.79-18.012-15.536-34.802-32.394-52.732-48.015-13.749-11.978-27.216-24.285-40.685-36.581-7.997-7.302-15.551-15.097-23.662-22.265-17.292-15.281-33.122-32.071-49.88-47.906-13.876-13.111-27.498-26.533-41.674-39.301-5.931-5.342-8.15-10.83-8.313-18.336-0.273-12.519-3.731-24.616-6.297-36.767-8.544-40.459-19.348-80.414-27.281-121.02-0.875-4.48-2.486-8.066-7.155-10.356-3.674-1.802-6.514-5.3-9.73-8.039-30.999-26.395-63.899-50.429-95.106-76.559-20.294-16.993-41.135-33.291-61.859-49.74-11.171-8.867-23.296-16.196-36.265-22.127-3.844-1.758-7.662-3.509-10.981-6.239-1.729-1.422-3.326-1.117-3.778 1.428-0.233 1.311-0.563 2.649-0.503 3.959 0.788 17.333-0.706 34.665-0.053 51.99 0.343 9.101 1.131 18.199 1.533 27.287 0.52 11.74 0.798 23.511 0.869 35.285 0.085 14.212 0.147 28.445 1.106 42.672 0.851 12.628 2.346 25.132 3.791 37.683 0.907 7.877 2.375 15.789 2.193 23.85-0.103 4.557-1.648 8.295-4.278 11.619-4.086 5.165-8.953 5.335-12.618 0.145-2.36-3.343-2.959-2.554-5.257 0.089-3.589 4.129-7.154 4.089-11.958 1.176-7.705-4.673-7.893-4.973-8.753-14.155-0.083-0.885-0.245-1.793-0.14-2.663 1.753-14.565 8e-3 -29.214 1.449-43.872 0.959-9.764 0.155-19.987-0.79-29.912-1.102-11.579-0.761-23.109-0.16-34.628 0.302-5.78 0.143-11.563 0.581-17.33 1.279-16.836 2.594-33.67 3.779-50.513 0.844-11.99 0.29-24.033 1.331-36.027 0.365-4.201 8e-3 -4.197-3.842-2.847-14.078 4.938-26.052 13.388-37.392 22.754-17.287 14.278-34.428 28.736-51.489 43.284-5.059 4.314-9.994 8.787-14.758 13.471-6.803 6.688-14.488 12.435-21.615 18.814-12.088 10.82-24.754 20.992-37.109 31.515-10.481 8.928-20.93 17.896-31.266 26.991-4.666 4.106-9.022 8.565-13.524 12.858-0.964 0.919-1.807 2.298-2.952 2.638-5.4 1.601-6.57 6.006-7.589 10.64-3.726 16.942-8.652 33.583-12.65 50.466-3.271 13.813-7.94 27.295-11.958 40.933-3.956 13.426-9.102 26.455-13.023 39.911-3.038 10.426-7.42 20.46-11.212 30.666-3.411 9.18-6.461 18.473-8.752 28.001-0.585 2.434-1.53 4.565-3.439 6.324-11.607 10.691-21.73 22.809-32.663 34.151-12.186 12.642-24.109 25.559-35.864 38.574-17.295 19.147-35.734 37.167-53.425 55.913-14.63 15.503-29.193 31.108-44.181 46.293-6.369 6.453-11.862 13.766-18.396 20.121-9.388 9.13-17.839 19.148-27.19 28.351-9.293 9.147-18.164 18.761-26.271 29.129-10.237 13.094-22.002 24.982-32.526 37.866-10.259 12.559-21.278 24.444-31.621 36.92-6.942 8.373-14.477 16.269-21.172 24.828-9.008 11.517-17.59 23.376-26.105 35.267-4.728 6.603-2.734 14.119-1.544 21.255 0.369 2.214 2.605 4.143 5.631 3.568 0.869-0.165 1.787-0.291 2.654-0.191 1.635 0.187 4.033-0.398 4.03 2.231-3e-3 2.255-2.161 2.649-3.9 2.856-1.972 0.235-4.002 0.26-5.984 0.094-4.979-0.415-6.256-1.461-7.192-6.231-1.147-5.846-0.689-11.812-0.885-17.722-0.09-2.701 1.373-5.133 2.975-7.308 9.07-12.319 18.098-24.666 26.997-37.112 5.4-7.551 12.189-14.133 18.55-20.969 11.962-12.856 23.344-26.249 34.743-39.569 7.45-8.705 14.915-17.528 22.023-26.6 9.033-11.527 18.203-23.05 27.885-33.992 8.479-9.583 18.042-18.373 27.285-27.354 5.88-5.713 11.247-11.953 16.853-17.95 15.177-16.236 30.574-32.273 45.483-48.751 17.456-19.293 35.969-37.567 53.751-56.547 21.285-22.718 41.958-46.006 63.585-68.395 6.891-7.133 10.962-15.695 14.345-24.581 8.858-23.27 16.747-46.905 25.262-70.296 11.217-30.815 18.101-62.801 27.271-94.159 2.926-10.006 5.09-20.23 8.839-30.007 0.93-2.425 2.429-4.147 4.174-5.88 9.98-9.905 21.429-18.061 32.16-27.071 17.378-14.59 34.849-29.071 52.269-43.611 20.151-16.819 40.294-33.648 60.431-50.483 8.864-7.41 17.527-15.072 26.602-22.212 12.233-9.623 25.272-18.111 38.71-25.972 0.958-0.561 1.993-1.074 2.782-1.829 6.478-6.196 6.586-9.562 0.878-15.849-6.258-6.892-12.927-13.475-19.243-20.352-2.24-2.439-4.164-3.368-7.461-1.895-4.088 1.827-8.218 3.171-10.288 7.751-1.128 2.495-3.661 3.057-6.296 2.735-2.005-0.245-3.315-1.284-3.485-3.378-0.15-1.845 0.026-3.718 2.056-4.471 1.65-0.612 3.409-1.068 5.156-1.254 4.293-0.458 8.084-2.378 12.031-3.85 2.46-0.918 3.121-2.449 1.301-4.533-7.168-8.211-13.224-17.329-20.736-25.268-2.104-2.224-4.007-2.738-7.041-1.88-6.201 1.754-11.495 4.535-15.477 9.764-4.509 5.92-10.69 9.199-17.934 10.64-13.083 2.602-26.077 5.808-39.259 7.709-10.669 1.539-21.458 4.537-32.384 1.316-1.81-0.533-3.53-0.161-5.238 0.355-13.829 4.182-28.141 4.389-42.3 3.933-11.582-0.373-22.556 1.65-33.504 4.593-7.564 2.033-15.209 2.955-22.993 3.678-8.164 0.759-16.256 2.33-24.469 3.012-11.953 0.993-23.869 2.438-35.801 3.684-3.095 0.323-6.196 0.597-9.289 0.949-4.896 0.557-9.762 0.737-14.586-0.599-1.725-0.478-3.569-0.639-3.748-3.037-0.146-1.958 0.46-3.496 2.157-4.538 3.999-2.456 8.23-4.383 12.718-5.786 15.943-4.983 32.314-8.202 48.526-12.103 21.45-5.161 43.276-8.026 64.95-11.768 17.074-2.947 34.351-4.729 51.546-6.972 21.611-2.819 43.303-5.117 64.817-8.542 12.803-2.038 25.741-1.652 38.498-3.617 3.056-0.471 7.164 1e-3 8.467-2.776 1.357-2.893-2.772-4.416-4.36-6.641-9.072-12.715-20.756-23.147-30.658-35.147-5.225-6.331-10.9-12.347-16.838-18.018-5.97-5.703-11.082-12.144-16.72-18.124-11.449-12.144-22.983-24.174-35.756-34.951-0.17-0.144-0.433-0.247-0.505-0.427-3.499-8.795-12.054-8.817-19.266-10.776-13.735-3.73-27.559-7.16-41.426-10.369-19.707-4.56-39.078-10.394-58.973-14.337-15.889-3.149-31.759-6.604-47.613-10.023-14.977-3.23-30.12-5.703-45.211-8.392-5.074-0.904-9.369-3.735-14.274-5.183-14.677-4.334-29.136-9.403-43.685-14.17-14.355-4.703-28.698-9.448-43.081-14.063-13.522-4.339-27.035-8.697-40.739-12.461-8.144-2.237-16.129-5.047-24.206-7.533-18.89-5.815-37.764-11.685-56.704-17.332-7.019-2.093-14.128-4.092-21.335-5.306-12.282-2.068-24.173-5.674-36.283-8.393-15.602-3.503-31.225-6.912-46.845-10.338-5.408-1.177-10.682-3.232-14.953-2.699zm772.37 136.8c-0.524-1.991 1.632-6.231-0.488-6.805-3.562-0.964-2.941 4.026-4.771 6.024-1.277 1.394-2.409 2.973-2.959 5.07-1.963 7.483-4.275 14.876-6.512 22.286-3.328 11.02-6.112 22.21-10.376 32.939-1.561 3.928-1.902 7.796 1.884 10.792 1.34 1.06 1.95 2.357 2.15 3.958 0.38 3.042 2.019 5.254 4.382 7.137 4.889 3.896 5.685 9.211 3.266 14.418-2.851 6.136 0.536 10.098 3.552 14.427 0.489 0.702 1.215 1.299 2.25 0.871 0.743-0.307 0.824-0.972 0.879-1.62 0.526-6.176 1.032-12.354 1.551-18.53 1.079-12.841 1.013-25.733 1.712-38.586 0.941-17.283 2.276-34.543 3.48-52.381zm-6.757 154.92c-0.688 3.031 0.832 4.946 4.583 5.873 3.634 0.899 7.131 2.411 10.613 3.838 1.426 0.584 2.346 0.512 3.521-0.55 6.577-5.951 12.812-12.251 18.75-18.82 3.86-4.271 3.238-6.3-2.277-7.831-5.551-1.54-11.203-2.821-16.886-3.756-6.355-1.046-9.656 0.998-12.573 6.893-0.488 0.987-0.906 2.168-1.714 2.811-3.568 2.839-3.632 6.856-4.017 11.542zm-75.643-20.668c-1.977 0.218-4.003 0.236-5.92 0.703-2.408 0.587-3.505 2.346-1.847 4.451 5.753 7.306 11.634 14.515 17.599 21.65 2.155 2.578 5.04 2.243 7.947 1.235 2.866-0.993 3.232-3.194 3.304-5.806 0.056-2.032-0.453-3.912-0.734-5.867-0.863-6-6.561-7.926-9.693-11.986-2.533-3.281-6.269-4.889-10.656-4.38zm73.688 39.342c-0.166 1.229-0.313 1.885-0.335 2.544-0.121 3.588 1.408 4.799 4.784 3.728 1.954-0.62 3.409-1.996 4.766-3.474 1.639-1.786 3.152-3.713 4.955-5.314 2.134-1.895 1.806-3.325-0.565-4.327-2.015-0.852-4.168-1.437-6.31-1.917-3.432-0.768-7.131 1.876-7.529 5.388-0.145 1.286 0.173 2.623 0.234 3.372zm-48.412 3.73c-0.868-1.593-1.214-3.274-1.38-5.05-0.137-1.466-4.944-5.079-6.565-5.083-0.352-1e-3 -1.022 0.341-1.008 0.469 0.24 2.309 1.532 3.942 3.253 5.457 1.615 1.422 2.891 3.224 4.37 4.809 0.258 0.277 0.834 0.504 1.167 0.41 0.558-0.157 0.568-0.632 0.163-1.012zm24.46-108.3c-0.868 0.502-0.856 1.369-0.793 2.175 0.065 0.822 0.282 1.826 1.448 1.249 0.827-0.409 1.037-1.307 0.669-2.206-0.243-0.595-0.56-1.164-1.324-1.218z"/>
</svg>
