<?xml version="1.0" encoding="UTF-8"?>
<svg class="mysvg" viewBox="0 0 62.5 62.5" xmlns="http://www.w3.org/2000/svg">
 <g transform="matrix(1.25 0 0 1.25 -75.414 -119.92)">
  <path d="m93.501 137.47c-3.4795 0.00293-5.3096-3.707-6.2695-7.416s-1.0518-7.4238-1.0518-7.4238l-1.7754-0.01758s-0.33301 14.848-7.2905 14.854l16.387 0.00391z"/>
  <path d="m99.388 122.63c-0.03027-7.2422-10.873-12.495-14.057-18.227-3.1826 5.7314-14.025 10.984-14.056 18.227-0.01416 3.4199 3.147 6.1904 7.0288 6.1904s7.0273-2.7705 7.0273-6.1904c0 3.4199 3.1475 6.1904 7.0293 6.1904s7.0273-2.7705 7.0273-6.1904z"/>
 </g>
</svg>
