<?xml version="1.0" encoding="UTF-8"?>
<svg class="mysvg" viewBox="0 0 48 48" xmlns="http://www.w3.org/2000/svg">
 <g transform="translate(-.74059 -1.7067)">
  <path d="m23.875 4.1875a0.96721 0.96721 0 0 0 -0.75 0.59375l-5.4062 12.562-13.625 1.25a0.96721 0.96721 0 0 0 -0.53125 1.6875l10.25 9.0312-3 13.344a0.96721 0.96721 0 0 0 1.4375 1.0625l11.75-7 11.75 6.9688a0.96721 0.96721 0 0 0 1.4375 -1.0625l-3-13.312 10.25-9.0312a0.96721 0.96721 0 0 0 -0.53125 -1.6875l-13.625-1.25-5.4062-12.562a0.96721 0.96721 0 0 0 -1 -0.59375z" /> -->
  <path d="m11.76 42.868 3.1263-13.899-10.707-9.3978 14.185-1.3218 5.6292-13.087 5.6405 13.082 14.186 1.3095-10.699 9.407 3.1383 13.896-12.253-7.2683-12.246 7.2789z"/>
  <path d="m24 6.2812-5.2188 12.156a0.4547 0.4547 0 0 1 -0.375 0.25l-13.125 1.2188 9.9062 8.7188a0.4547 0.4547 0 0 1 0.125 0.4375l-2.9062 12.875 11.375-6.75a0.4547 0.4547 0 0 1 0.4375 0l11.375 6.7188-2.9062-12.844a0.4547 0.4547 0 0 1 0.125 -0.4375l9.9062-8.7188-13.125-1.2188a0.4547 0.4547 0 0 1 -0.375 -0.25l-5.2188-12.156z" />
  <path d="m24 5.1562-5.625 13.094-14.188 1.3125 9.2812 8.1562c8.444-3.0385 19.488-5.427 29.656-7.5625l0.6875-0.59375-14.188-1.3125-5.625-13.094z"/>
 </g>
</svg>
