<?xml version="1.0" encoding="UTF-8"?>
<svg class="mysvg" viewBox="0 0 229 309.04736" xmlns="http://www.w3.org/2000/svg">
 <g transform="translate(-819.63 -92.663)">
  <path d="m940.22314,92.67963c-2.11.10998-4.2223.77621-5.4688,1.9375-1.7595,1.63923-2.493,1.80915-3.6562.84375-1.1686-.96987-1.4688-.89901-1.4688.40625 0,.98324-.8169,1.625-2.0937,1.625-1.462,0-1.9307.45916-1.5313,1.5 .432,1.12573-.1782,1.49999-2.4062,1.49999-1.6328,0-2.9688.45-2.9688,1 0,1.57968-1.8375,1.1832-4.875-1.0625-1.5401-1.13867-4.679-2.20422-6.9687-2.37499s-4.795-.86836-5.5938-1.53125-1.9555-.87515-2.5625-.5c-.7337.45348-.5157,1.15609.6875,2.09375 1.6647,1.29727 1.5999,1.37504-.9375.96875-1.5172-.24293-3.7672-.71778-5-1.03125l-2.25-.5625 2.25,1.15625c3.3222,1.70996 2.9049,4.769-.75,5.49999-3.1223.62445-3.9006,1.81971-1.75,2.6875 .6875.27742.2375.55031-1,.59375-2.7024.09482-2.8563.9154-.5,2.65625 2.4548,1.81362.5576,3.4142-4.2187,3.59375-2.5368.09536-4.2211-.39198-5.0313-1.5-1.3407-1.83359-3.5-2.26535-3.5-.6875 0,.55-.45,1.00001-1,1s-1-.69378-1-1.5625c0-1.274-.6285-1.43658-3.25-.8125-1.7875.42555-4.9375.68265-7,.5625-3.4944-.20354-4.2938.41026-3.875,3.0625 .0651.4125-.55.75001-1.375.75s-1.5.45001-1.5,1-.7875,1.01377-1.75,1.03125c-1.6114.02928-1.5992.163.125,1.46875 1.6725,1.26659 1.2187,1.39678-4.25,1.15625-3.3674-.14809-6.125.08059-6.125.53125s-.9167.81251-2.0625.8125c-1.2222,0-1.9319.51667-1.6875,1.25 .2292.6875.8396,1.27283 1.3438,1.28125s1.4645.37333 2.1562.8125c.7416.4708 1.9217.14079 2.8438-.78125 2.0218-2.02181 3.0502-2.01849 1.375,0-1.0921,1.31585-.9239,1.6691 1.125,2.25 2.1121.59882 1.9054.73786-1.5938,1.25-3.8931.56979-3.9332.63254-1.5,1.71875 1.375.61382 2.05,1.17307 1.5,1.25-3.3201.46448-4.6239.96764-5.9375,2.28125-.8098.8098-1.1842,1.75325-.8437,2.09375s.0559.59376-.625.59375-1.9097.69091-2.75,1.53125c-1.1935,1.1935-1.2671,1.85626-.3438,2.96875 .6501.78327.8887,2.34234.5313,3.46875-.7736,2.4371.2734,2.6705 1.9062.4375 1.063-1.45374 1.2935-1.45376 2.5,0 1.1175,1.34649 1.0487,1.59376-.375,1.59375-.9248,0-1.3816.46429-1.0312,1.03125 1.1371,1.8399 1.3359,8.44189.2812,9.09375-.6849.4233-.6002,1.41299.2188,3l1.2187,2.375-2.375-2.46875-2.375-2.5-.3125,2.25c-.3264,2.28182-3.4203,4.67343-4.5625,3.53125-.3473-.34732-.625.14951-.625,1.125 0,1.14854-.5181,1.5835-1.4687,1.21875-2.6075-1.00058-2.9202,1.62485-.4375,3.65625l2.4062,1.96875-2.2812-.71875c-2.067-.64377-2.2389-.44606-1.6563,1.875 .4661,1.85687.2227,2.71106-.9375,3.15625-.8833.33897-1.625,1.32276-1.625,2.15625 0,1.24437-.2797,1.2887-1.5312.25-1.7777-1.47536-1.6567-1.58961-3.3438,3.34375-1.3001,3.80182-.7561,6.31928.8125,3.78125 .6697-1.08352.9705-1.09025 1.625-.03125 .47.76048.3148,1.45761-.375,1.6875-1.5647.52158-1.5208,3.92364.0625,4.5625 .9013.36368.9212.5368.0625.59375-.655.04342-1.4726-.38749-1.8125-.9375-.9417-1.52363-2.5-1.19251-2.5.53125 0,.84226.675,1.80843 1.5,2.125 2.3217.89093 1.77,2.22825-.6562,1.59375-1.5368-.40187-1.9453-.21592-1.4063.65625 .416.67311.7813,2.71528.7813,4.53125 0,2.02821.8508,4.24356 2.2187,5.71875 1.2247,1.32083 2.0579,2.92014 1.8438,3.5625s.5218,2.08438 1.6562,3.21875 2.0625,2.79517 2.0625,3.6875c0,1.2833.2902,1.39496 1.4063.46875 .9645-.80051 1.6195-.84183 2.0625-.125 .3564.57671 1.0622,1.03126 1.5625,1.03125 1.0754,0 .0282-3.20434-1.3438-4.125-1.2544-.84177.0502-2.87499 1.8438-2.875 .808,0 1.1879.62194.875,1.4375-1.0695,2.78686 6.1935,7.8741 7.7187,5.40625 .5826-.94263 1.2462-.79246 2.8125.625 1.137,1.02892 2.4042,1.53325 2.8125,1.125s-.1207-1.37624-1.1875-2.15625-1.4352-1.43749-.8125-1.4375 1.443.4958 1.8125,1.09375 1.5473.8756 2.625.59375c1.8065-.47241 1.8373-.34919.5,1.65625-1.2008,1.80075-2.2017,2.1176-5.9375,1.84375-2.5176-.18456-4.8148.14701-5.1875.75-.3674.59447-2.0075,1.06251-3.625,1.0625s-2.9375.47079-2.9375,1.03125c0,.57231 1.2056.79488 2.75.5l2.75-.53125-2.625,1.0625c-1.9985.79665-2.5333,1.56368-2.125,3.125 .4833,1.8481.3139,1.94389-1.625.90625-2.8681-1.53497-4.8281-.33125-2.4375,1.5 1.6271,1.24635 1.4843,1.32725-1.4375.78125-2.0557-.38416-3.25-.22299-3.25.46875 0,.60148-.5674.8677-1.2812.59375s-2.3806.64006-3.6875,2.03125l-2.375,2.53125h3.0937c1.7066,0 3.8-.67499 4.625-1.5 1.9771-1.97711 4.7587-1.9771 4,0-.3166.825-1.4395,1.50001-2.5,1.5-1.5879,0-1.7479.33368-.9062,1.90625 1.0883,2.03355-.1572,2.35718-2.7813.71875-2.5044-1.56367-2.6319.54007-.1562,2.53125 2.4381,1.96096 2.4378,1.98159.125.84375-3.7484-1.84411-4.8158.32762-1.4688,3 2.4753,1.97637 2.5365,2.16907.5625,1.5625-1.6704-.51328-2.25-.28863-2.25.875 0,.86207-.675,1.56251-1.5,1.5625-1.0068,0-1.5,1.00662-1.5,3.0625 0,2.36002.4016,3.00308 1.75,2.78125 2.0304-.33403 4.25.838 4.25,2.25 0,.6059-.6638.65237-1.75.09375-1.9568-1.00642-4.25-.50069-4.25.9375 0,.51778 1.2375,1.42928 2.75,2.03125l2.75,1.09375-2.75.96875c-3.2259,1.13098-3.4738,2.32624-.8437,3.96875 1.5857.99032 1.7009,1.57527.7812,3.59375-.9498,2.08464-.7414,2.68211 1.375,4.28125 1.6161,1.22108 2.7841,1.49451 3.4375.84375 .655-.65235.4974-1.27793-.4687-1.875-.8045-.49719-1.1466-1.22841-.75-1.625 1.0402-1.04021 1.9372.15089 2.25,3 .1494,1.36159.5781,2.98108.9375,3.5625 .9826,1.58994 3.5312,1.2443 3.5312-.46875 0-1.49177 1.1731-1.91094 4-1.5 .8687.12628.4666-.58177-.9375-1.71875-1.629-1.3191-2.0101-2.16714-1.2187-2.65625 .6392-.3951 1.1562-.2941 1.1562.25 0,.63912 1.1338.66047 3.2188.0625 3.307-.94844 6.7812-.40911 6.7812,1.03125 0,.44418-1.3842,1.06436-3.0937,1.40625-2.2267.44533-2.9445,1.04809-2.5313,2.125 .3351.87329.0224,1.50001-.75,1.5-.7313,0-2.4058,2.02501-3.7187,4.5-1.4389,2.71219-3.1005,4.50001-4.1563,4.5-.9634,0-1.75.48005-1.75,1.0625s-.45.77743-1,.4375-1-.08825-1,.53125 .8085.87123 1.7813.5625c1.112-.35295 2.2156.18145 3,1.4375 .813,1.30188.8849,1.96876.1875,1.96875-.5872,0-.8257.39865-.5313.875s-.8318.72182-2.4687.53125c-3.7671-.43861-3.7471.51219.0937,4.53125 2.3335,2.44179 2.8325,3.52818 2,4.53125-.8209.98909-.7048,1.47516.5,1.9375 2.3811.91371 3.6375.72632 2.9375-.40625-.3399-.55.0559-.99999.875-1 1.1734,0 1.3224.64611.6563,2.96875-.6052,2.11008-.4705,3.25709.5,4.0625 .7456.61888 1.064,1.89022.7187,2.8125-.547,1.46097-.4075,1.47698 1.0625.28125 1.4536-1.18243 1.6875-1.14781 1.6875.25 0,.89234.5109,1.62501 1.125,1.625 .6152,0 .875-.86211.5938-1.9375-.2808-1.07363.0271-2.14547.6562-2.375 .8397-.30634.7989-.96712-.125-2.53125-1.1226-1.90059-1.0207-2.15624.875-2.15625 1.7037,0 2.0131-.44617 1.5625-2.25-.5021-2.00977-.3354-1.94526 1.75.625 2.5146,3.09924 4.5625,2.82555 4.5625-.625 0-2.54584 1.463-1.29993 2.5,2.125 .6215,2.05268.428,2.23843-1.4062,1.65625-2.668-.84676-2.6992.61384-.0625,3 1.7364,1.57147 1.8374,1.97399.5625,2.6875-.823.46052-1.2485,1.50201-.9375,2.3125 .4494,1.17116-.421,1.47585-4.2813,1.5-3.8872.02434-4.5104.25149-3.0625,1.09375 1.6768.97541 1.6037,1.22345-1,3.46875-1.545,1.33239-3.335,2.24006-3.9687,2-2-.75751-2.3704.66513-.5625,2.125 1.5907,1.28458 1.5322,1.34913-.5313.78125-2.8935-.79624-2.8935.79489 0,2.9375l2.25,1.65625-2.6875-.53125c-3.1616-.64416-4.4026.70817-2.2812,2.46875 1.6079,1.33449 2.0398,4.96876.5937,4.96875-.4858,0-1.1514-.97404-1.4687-2.1875s-.8961-1.88521-1.2813-1.5c-.7931.79312 2.6861,7.68751 3.875,7.6875 .4249,0 1.7513-.97008 2.9688-2.1875l2.2187-2.21875 .5938,2.46875c.6598,2.79533 3.6511,3.43997 3.1875.6875-.1725-1.02396.2476-1.65415 1-1.5 2.1999.45072 2.7224,2.09867 1.0625,3.3125-.9681.70785-1.2745,1.63939-.7813,2.4375 .6259,1.01277 1.1273.884 2.25-.59375 1.3282-1.74816 1.4034-1.64416.7813,1.34375-.3957,1.90002-.2865,3.25001.2812,3.25 1.2721,0 2.3688-4.38648 1.5938-6.40625-.3334-.8687-.175-1.59374.375-1.59375s1.2771.67501 1.5937,1.5c.7911,2.0615 2.6233,1.89097 2.6875-.25 .044-1.46914.3074-1.38888 1.625.5 1.5068,2.16003 4.0828,3.30545 2.8125,1.25-.3399-.55.2818-.99999 1.375-1 2.3235,0 5.4188-2.72756 4.5938-4.0625-.3126-.50566-.0883-.93749.5312-.9375 .6713,0 .8783.80802.5,2-.805,2.53649-.0365,2.5365 2.5,0 2.6139-2.61392 2.5314-3.95037-.25-4.09375-2.0386-.10511-2.0621-.1796-.25-.625 1.1-.27038 2.4877-.88442 3.0938-1.375 .6551-.5303 2.4105-.44424 4.3125.21875 1.7595.61337 3.5218.78885 3.9062.375s.125-.97323-.5625-1.21875c-2.7572-.98472-1.1202-2.3872 2-1.71875 4.3127.92394 4.4298,1.12379 1.9063,3.3125-1.1882,1.0305-2.1563,2.3421-2.1563,2.90625 0,1.52748 2.8212,2.30068 3.625,1 .4365-.70634 1.0351-.26949 1.5625,1.15625 .5339,1.44318 1.3749,2.07851 2.3125,1.71875 .8603-.33014 1.9003.22318 2.5,1.34375 1.1308,2.11297 4,1.69083 4-.59375 0-.76615.4215-1.40624.9375-1.40625s.8536,1.2038.75,2.65625c-.1072,1.50393.4205,2.8442 1.2188,3.125 1.0026.35274 1.2601-.0895.875-1.5625-.4024-1.53865-.1538-1.89948.9687-1.46875 1.4932.57298 1.3895-.42645-.5625-5.75-.478-1.30371-.3229-1.29188 1.1875-.0625 1.5416,1.25471 1.8104,1.16998 2.3125-.75 .3113-1.19045 1.119-2.18749 1.8125-2.1875s1.7846-.61962 2.4375-1.40625c.95-1.14467.7685-1.66622-.9062-2.5625-1.151-.61596-1.79-1.58589-1.4375-2.15625 .4379-.70868.9757-.68049 1.7187.0625 1.5289,1.52893 2.6875,1.32636 2.6875-.4375 0-.825.5-1.49999 1.0938-1.5 .6812,0 .8377-1.19881.4375-3.25l-.625-3.25 3.0312,3.5c1.6743,1.925 3.5227,5.30001 4.0938,7.5s2.5315,7.60001 4.375,12c5.9819,14.27757 6.9625,34.17355 2.5,51.25-.6999,2.67808-1.2985,5.46052-1.625,7.46875h24.9375c-.2395-1.16179-.4796-2.33899-.7813-3.71875-2.0807-9.51664-1.0522-51.63088 1.5313-62.625 1.6354-6.95937 1.913-7.41603 6.0312-9.59375 3.2663-1.72723 4.6342-2.00444 5.6563-1.15625 .9954.82605 1.3437.82838 1.3437,0 0-1.43956 3.677-1.46397 4.5625-.03125 .4838.78285.9671.78283 1.75,0 .5979-.59792 1.5487-1.09374 2.0938-1.09375s.1492.62612-.875,1.375-2.6816,1.13803-3.6875.875c-1.2455-.32569-1.8438.0854-1.8438,1.25 0,.94064.9474,1.95019 2.0938,2.25 1.4253.3727 1.7041.76886.875,1.28125-.6669.41221-.9029,1.28559-.5,1.9375 .5149.83321 1.1559.58437 2.1562-.84375 1.7821-2.54434 4.375-1.69131 4.375,1.4375 0,1.2837.45,2.59759 1,2.9375s1,1.3 1,2.125-.441,1.22046-1,.875-.7929-1.026-.5-1.5 .0902-1.12327-.4687-1.46875-1.0084.1613-1,1.15625c.0393,4.63949 5.5993,5.91093 6.5625,1.5 1.1755-5.38243 1.3551-5.63778 2.7812-3.6875 1.3259,1.81319 3.625,1.36136 3.625-.71875 0-.61173-.7429-1.92833-1.6562-2.9375-1.7862-1.97372-1.0257-3.93191.8125-2.09375 1.5784,1.57838 3.8437.41908 3.8437-1.96875 0-1.83956.2069-1.8051 2.0938.59375 2.3084,2.9347 4.5236,2.67834 2.9062-.34375-.5515-1.03046-.9595-2.27008-.9375-2.71875s.7107.42501 1.5313,1.9375 2.0137,2.75001 2.6562,2.75c.8676,0 .8698-.28645.0313-1.125s-.4274-2.16716 1.5625-5.21875c5.25946-8.06583 7.45136-9.54634 8.46866-5.65625 .644,2.46278 2.6731,2.64995 2.7188.25 .0279-1.46971.3527-1.35212 2,.625 1.0788,1.29479 1.7107,2.75727 1.4062,3.25-.8156,1.31972.9809,1.08165 2.375-.3125 .9333-.93333 1.1875-.8222 1.1875.5 0,.935.45,1.68751 1,1.6875s1-.89999 1-2 .5077-1.99999 1.125-2c.7756,0 .7351-.46363-.125-1.5-.9998-1.20473-.9684-1.49999.0938-1.5 1.0285,0 1.0583-.25415.125-1.1875-1.7756-1.77563-1.4887-2.46391 1.0312-2.375 1.297.04577 2.1441-.46694 2-1.1875-.1482-.74093.8184-1.24999 2.3438-1.25 3.3677,0 2.9804-3.42222-.4063-3.59375-1.2668-.06417-2.8491-.65658-3.5-1.3125-.9141-.92125-.7736-1.04458.6563-.5 1.112.4235 2.1806.20694 2.6562-.5625 .5905-.95547 1.071-.74816 1.9063.8125 .6578,1.22908 2.5693,2.3644 4.625,2.75 1.9244.36102 3.7298,1.04363 4.0312,1.53125 .8681,1.4046 2.4375,1.01859 2.4375-.59375 0-.80744-1.2375-2.11693-2.75-2.9375-1.8625-1.01043-2.2078-1.50413-1.0625-1.53125 .93-.02202 1.9859.42096 2.3438,1s1.1296.88383 1.7187.6875c1.541-.51367 1.8462-4.02785.4375-5.03125-.8749-.62317-.8642-.99984-.0312-1.34375 1.4597-.60281-2.1763-8.36058-3.9375-8.40625-.7215-.01871-.4981-.56239.5312-1.34375 .9625-.73064 1.75-2.26185 1.75-3.40625s.3839-2.30959.8438-2.59375c1.3013-.80423.6846-4.68067-.9063-5.6875-2.2874-1.44753-3.3007-1.06796-1.8437.6875 1.1638,1.40226 1.0822,1.57874-.625,1.25-1.0836-.20869-2.7493-2.06613-3.7188-4.125-1.658-3.52111-3.75-5.02278-3.75-2.6875 0,1.74904-2.0587-.07862-3.0625-2.71875-.515-1.35467-1.391-2.16957-1.9687-1.8125-.7195.44469-.6771,1.096.125,2.0625 2.2822,2.74984-.3839,1.36639-5.375-2.8125-3.1753-2.65852-5.2102-3.7759-5.4688-3-.2267.68004-1.2584,1.21876-2.3125,1.21875s-1.9375.45001-1.9375,1c0,1.92986-3.5281.97272-6.4687-1.75-1.63346-1.5125-3.43916-2.80094-3.99996-2.875s-1.5938-.18656-2.2813-.25c-2.5906-.23906-1.098-1.7038 1.9688-1.9375 1.7587-.13401 3.39036-.42166 3.62496-.65625s1.2366.56713 2.25,1.78125c1.8988,2.27488 2.6171,1.3251.9687-1.28125-.5902-.93318-.5344-1.91787.1563-2.75 1.5733-1.89572.0389-2.89817-2.25-1.46875-2.60636,1.62772-2.46976.85327.4062-2.25 2.8341-3.0581 3.625-3.2071 3.625-.625 0,1.06754.45,2.22259 1,2.5625 .5694.35191 1-.50928 1-2 0-1.50295.4218-2.35732 1-2 .5539.34231 1.2766-.04856 1.5938-.875 .7445-1.94004-1.862-7.20129-3.4063-6.875-.6508.1375-1.1875-.45008-1.1875-1.3125 0-1.29789.517-1.20557 3,.5625 1.65,1.1749 3,2.57997 3,3.125s.4992.71119 1.0938.34375c.6069-.37508.8119-1.8299.4687-3.3125-.4583-1.97925-.3545-2.28043.4063-1.15625 .5583.825 1.0292,2.40001 1.0625,3.5 .0502,1.66073.2807,1.56473 1.2812-.65625 1.0243-2.27366 1.3727-2.46105 2.4688-1.25 1.0629,1.17432 1.0189,1.40626-.25,1.40625-.8466,0-1.5313.45001-1.5313,1s.4707,1.00001 1.0313,1c.6029,0 .7371,1.08881.3437,2.65625-.4679,1.86439-.3064,2.43588.5,1.9375 .6971-.43086 1.1369-.00685 1.1563,1.09375 .0297,1.68776.1301,1.686 1.5-.125 1.4534-1.92151 1.4684-1.92153 1.5,0s.0466,1.92149 1.5,0c.8075-1.06762 1.4687-2.76914 1.4687-3.78125s.675-2.08966 1.5-2.40625 1.5-1.18864 1.5-1.9375c0-.7995.6193-1.11921 1.5-.78125 1.7615.67595 1.8904-.47919.4688-4.21875-.9062-2.38344-.8454-2.55398.5-1.4375 .8425.69923 1.5312,2.09236 1.5312,3.125s.45,1.87501 1,1.875c1.2984,0 1.2984-2.69756 0-3.5-1.5488-.95724-1.1594-2.49975.4688-1.875 1.1246.43155 1.3685-.26429 1.1875-3.09375-.1282-2.00478-.6564-3.93172-1.1875-4.3125s-1.5785-1.49365-2.3438-2.46875c-1.2199-1.55426-1.1891-1.70846.25-1.15625 1.0694.41038 1.625.12725 1.625-.84375 0-.8197-.9384-1.76038-2.0937-2.0625s-1.8007-1.00605-1.4375-1.59375c.4124-.66728-.5875-1.115-2.6563-1.1875-1.8199-.0638-2.525-.34221-1.5625-.59375s1.75-1.12038 1.75-1.9375 .4058-1.21547.9063-.90625 1.7155.24798 2.6875-.125c1.6455-.63147 1.638-.73459-.1563-1.4375-3.0583-1.19807-4.4375-1.02198-4.4375.59375 0,.825-.3375,1.47138-.75,1.40625s-.975-.04845-1.25.0625c-2.0167.81375-5,.50383-5-.53125 0-.68725-.3375-1.45682-.75-1.6875s-.075-.21599.75.03125c5.3737,1.61054 5.331,1.64201 4.8438-.90625-.2584-1.35179.0031-2.90082.5937-3.4375 1.5805-1.43643 4.5613-.58219 3.9063,1.125-.3034.79054-.0464,1.43751.5625,1.4375s1.1082-.56249 1.125-1.25 .4968-.4712 1.0625.5c1.1678,2.00501 3.3651,2.39736 2.625.46875-.7888-2.05555 4.1289-1.30878 5.7812.875 1.4046,1.85646 1.438,1.83891 1.4688.03125 .0263-1.55022.2893-1.65565 1.5312-.625s1.5.9498 1.5-.53125c0-.98654-.715-2.59138-1.5937-3.5625-1.7341-1.91608-1.1474-3.90624 1.1562-3.90625 .7926,0 1.4375-.44999 1.4375-1s-.3375-.99893-.75-1-.8429-1.43621-.9687-3.21875-.6883-3.40656-1.25-3.59375c-1.9238-.64127-1.0338-1.99242.9687-1.46875 1.1029.28841 2,.04276 2-.5625 0-.60367-1.0789-1.38558-2.4062-1.71875-1.4377-.36083-2.6704-1.56231-3.0313-3-.3331-1.32734-1.0089-2.43749-1.5312-2.4375s-.6786-.68985-.3438-1.5625c.5091-1.32659-.1105-1.54628-3.7812-1.28125-3.3526.24207-4.4063-.02574-4.4063-1.15625 0-.81422.6027-1.36366 1.3125-1.21875s2.1641-.23137 3.25-.8125c1.5382-.82322 2.1012-.70228 2.5625.5 .983,2.56148 3.1734,1.72553 3.875-1.46875 .4532-2.06324 1.2729-2.99999 2.5938-3 2.0434,0 2.5708-1.47122.9062-2.5-1.5343-.94826-1.1838-2.49999.5625-2.5 .8575,0 1.2735-.42507.9375-.96875-.3503-.56686.0788-.74777.9688-.40625 .8535.32754 1.5312.13428 1.5312-.4375s-.9-1.33837-2-1.6875-2-1.26263-2-2.03125-.8423-1.85356-1.875-2.40625c-2.3218-1.24259-3.296-5.65503-1.5625-7.09375 .9896-.82128 1.1654-.58863.75,1-.3893,1.48861-.0598,2.03126 1.1875,2.03125 1.0867,0 1.5035-.53248 1.1563-1.4375-.303-.78946-.137-1.57699.3437-1.75 1.1486-.41349-1.4392-3.86759-3.1562-4.21875-.7337-.15005-2.0188-.53161-2.8438-.84375s-2.7375-.85606-4.25-1.1875-2.7664-1.13548-2.7812-1.8125-1.8148-2.33941-4-3.6875-3.9688-2.83132-3.9688-3.28125c0-1.11092 5.3173.25879 6.1875,1.59375 1.2514,1.91954 2.261-.4057 1.0313-2.375-.9744-1.5603-.9388-1.8072.1875-1.375 2.2703.87118 2.8229-1.41751.625-2.59375-1.3656-.73088-2.0313-.7596-2.0313-.0625 0,1.9025-1.4838,1.0628-2.6875-1.53125-.9205-1.98351-.9205-2.34797 0-1.59375 1.103.90379 4.1267,1.55139 5.9688,1.28125 1.8594-.2727-1.7952-4.45122-6.3438-7.25-5.0778-3.1244-6.2672-4.42709-3.1875-3.46875 .9625.29951 2.425.1312 3.25-.40625 1.3333-.8686 1.3333-1.09347 0-1.96875-.825-.54158-2.0202-.99158-2.6562-1-.662-.00877-.9244-.8863-.625-2.03125 .5835-2.2313-.6669-2.61432-2.5-.78125-1.2727,1.27275-1.6314.2685-1.25-3.46875 .1031-1.0103-.8266-2.15421-2.1563-2.6875-1.2729-.51049-1.9173-.96517-1.4375-1 1.959-.14232-1.7957-3.06249-3.9375-3.0625-1.2752,0-2.5963-.44799-2.9375-1s-1.7212-.71164-3.0625-.375c-1.5865.3982-2.4375.16849-2.4375-.625 0-.81994-1.0652-1.04981-3.25-.6875-1.78746.29639-4.14996.15906-5.24996-.3125s-1.4375-.86761-.75-.90625 1.25-.57254 1.25-1.15625c0-.97481-5.1672-.71067-11.5937.59375-1.1486.23313-2.9486-.21673-4-1.03125-1.4885-1.15308-1.5217-1.35788-.2188-.90625 1.0719.37153 2.069-.16923 2.7813-1.5 .8923-1.66729.8097-2.09374-.375-2.09374-.8119,0-1.7449.4667-2.0938,1.03124s-1.1665.95349-1.8125.84375c-1.5146-.25728-6.6875,2.22996-6.6875,3.21875 0,.41588.5625.98222 1.25,1.28125s.0114.31252-1.5,0c-2.1914-.45314-3.341.05282-5.6562,2.53125-3.2797,3.51097-4.0938,3.8117-4.0938,1.5 0-1.2514-.6003-1.46917-2.7187-.9375-2.693.67588-2.6841.65857-.8438-1.375 1.8249-2.01642 1.8105-2.05353-.5312-2.9375-1.3134-.49577-2.7438-.71165-3.1563-.46875s-.75-.09066-.75-.75-.7875-1.80059-1.75-2.53125c-1.6531-1.2549-1.6438-1.34494.125-1.37499 1.452-.02466 1.6137-.33435.75-1.375-1.3211-1.59185-.4777-2.65625 2.0625-2.65625 2.0415,0 2.4889-1.59746.625-2.21875-.6573-.21912-2.7948.16704-4.75.84375-2.8479.9857-3.8608.96253-5.0625-.0625-1.2113-1.03318-3.2963-1.48498-5.4062-1.375zm-92.25,44.21874c.4295-.05148.8971.17451 1.1562.59375 .3455.55898-.08,1.00001-.9375,1-1.7565,0-2.012-.58028-.625-1.4375 .128-.07911.2631-.13909.4063-.15625zm-7.9375,3.9375c-.1196.02309-.2688.07127-.4063.15625-.55.33992-1,1.075-1,1.625s.45.71493 1,.375 1-1.04374 1-1.59375c0-.4125-.2352-.63178-.5937-.5625zm199.12496,33c.8163,0 1.4687.6104 1.4687,1.34375 0,1.68354-.4466,1.68352-1.8437,0-.8376-1.00925-.7484-1.34372.375-1.34375zm-3.875,4.0625c1.1699-.14115 3.6514.63388 4.8125,1.71875 .6.56059.6.836 0,.75-3.8471-.55148-5.4688-1.1392-5.4688-2 0-.2729.2663-.4217.6563-.46875zm-9.4688,5.8125c.1995-.07262.5516.11403 1,.5625 .6509.65083.9405,1.43458.6563,1.71875-.6674.66739-1.8438-.50899-1.8438-1.84375 0-.23498.0678-.39393.1875-.4375zm-63.18746,3.78125c.55,0 1,.19497 1,.4375s-.45.72259-1,1.0625-1,.14496-1-.4375 .45-1.06249 1-1.0625zm-29.9062,2.5625c.6157-.0219 1.3914.31077 1.9375.96875 .6796.81894.9661,1.46876.6562,1.46875s-.842-.44103-1.1875-1-1.0505-.75395-1.5625-.4375-.9375.3375-.9375.0625c0-.67738.478-1.0406 1.0938-1.0625zm104.99996,8.5625c.3474-.01431.7327.07432 1.0937.21875 .7977.31922.5713.54575-.5937.59375-1.0541.04342-1.6448-.19892-1.3125-.53125 .1661-.16614.4651-.26694.8125-.28125zm-.25,3.9375c.2942-.08197.9887.18335 2.0312.84375 .7545.47797 1.2088,1.37353 1,2-.2296.68869-1.0775.34837-2.125-.875-1.0105-1.18014-1.2846-1.86336-.9062-1.96875zm-215.18746,1.09375c-.1219.03174-.223.09796-.3125.1875-.2935.29349-.2376,1.00717.125,1.59375 .8147,1.31822 2.5312,1.40298 2.5312.125 0-1.03238-1.4906-2.1284-2.3437-1.90625zm30.5312,1.84375c.5219,0 .2938.67501-.5312,1.5-1.9495,1.94942-3.2742,1.94943-1.6563,0 .6847-.825 1.6656-1.49999 2.1875-1.5zm-9,1c.7872,0 2.189.56251 3.0938,1.25 1.3143.99874 1.4022,1.55153.4375,2.75-1.6425,2.04037-3.4133,2.24207-4.0938.46875-.3099-.80761-.0688-1.46874.5313-1.46875 .7197,0 .6649-.51052-.1563-1.5-1.0079-1.21451-.9714-1.49999.1875-1.5zm-12.7812,1.34375c.2721-.07214.6525.38234.9375,1.125 .6761,1.76211.111,2.06422-.875.46875-.3626-.58659-.4497-1.26909-.1875-1.53125 .0327-.03277.0861-.05219.125-.0625zm10.1875.71875c.2482,0 .4062.47717.4062,1.4375 0,.825-.436,1.50001-.9687,1.5s-.6916-.67499-.375-1.5c.3685-.96033.6892-1.4375.9375-1.4375zm192.87496,0c.276,0 .6352.29681 1.0312.9375 .3399.55.145,1.00001-.4375,1s-1.0625-.44999-1.0625-1c0-.64069.1927-.9375.4688-.9375zm5.7187,2.03125c.93-.03866 1.9726.35626 2.3125.90625 .7107,1.14988.6759,1.14989-2,0-1.6304-.70061-1.691-.84897-.3125-.90625zm-132.71866,1.96875c.276,0 .6352.29681 1.0312.9375 .3399.55.145,1.00001-.4375,1s-1.0625-.44999-1.0625-1c0-.64069.1927-.9375.4688-.9375zm13.1562,2.125c.7075-.09708.3579,2.78112-.7812,5.28125-.7902,1.73423-1.7294,2.39486-2.875,2.03125-2.3135-.73428-4.9688.42174-4.9688,2.15625 0,1.15084-.3952,1.20701-2.125.28125-1.7448-.93382-2.3285-.84289-3.0625.46875-.4967.88751-1.5112,1.59376-2.25,1.59375-1.7821,0-2.9002-3.03736-1.5937-4.34375 .7103-.71037 1.0312-.51304 1.0312.65625 0,2.7709 2.0281,1.92362 3.1563-1.3125 .5749-1.64935 1.4893-2.70988 2.0312-2.375s2.9767.72207 5.4063.875c3.1904.20082 4.4409-.09115 4.5312-1.09375 .2469-2.74185.3858-3.22959 1.125-3.96875 .1452-.14523.2739-.23613.375-.25zm115.68746.0625c-.2664-.01731-.3125.33764-.3125,1.0625 0,1.84586 3.5556,4.09949 5.0313,3.1875 .5386-.3329.9687.11009.9687,1s.45,1.33993 1,1 1-1.52039 1-2.625c0-1.57646-.4364-1.85988-2.0625-1.34375-1.3234.42-2.7683.02095-4-1.09375-.8629-.78095-1.3586-1.17019-1.625-1.1875zm-119.96866.15625c.4295-.05148.8971.17452 1.1562.59375 .3455.55897-.08,1.00001-.9375,1-1.7565,0-2.0121-.58028-.625-1.4375 .128-.07911.2631-.13909.4063-.15625zm-82.7813.90625c-.7718-.00031-1.3572,1.04342-.9062,2.21875 .3098.80738.9776,1.46876 1.4687,1.46875 1.0261,0 1.203-2.32822.25-3.28125-.2667-.26669-.5552-.40615-.8125-.40625zm58.625,1.4375c.165-.14883.5116.50197.875,1.71875 .4845,1.62236.7201,3.09239.5313,3.28125-.5331.5331-1.596-2.7002-1.5-4.5625 .0118-.22938.0387-.38789.0937-.4375zm8.2813,1.3125c.276,0 .6352.29681 1.0312.9375 .3399.55.145,1.00001-.4375,1s-1.0625-.44999-1.0625-1c0-.64069.1927-.9375.4688-.9375zm26.0937,3.28125c1.9384,0 1.8595,1.30099-.125,2.0625-2.2286.85521-2.4215.7868-1.8437-.71875 .2814-.73334 1.1674-1.34372 1.9687-1.34375zm-97.5625,3.65625c-.55,0-1,.45001-1,1s.45,1.00001 1,1 1-.44999 1-1-.45-.99999-1-1zm199.09376,16.125c.3474-.01431.7327.07432 1.0937.21875 .7977.31922.5713.54575-.5937.59375-1.0541.04342-1.6448-.19892-1.3125-.53125 .1661-.16614.4651-.26694.8125-.28125zm-3.625,1.34375c.0602.02246.1181.10938.1875.28125 .2774.6875.2773,1.81251 0,2.5s-.5001.12501-.5-1.25c0-1.03125.1316-1.59863.3125-1.53125zm-2.5,4.5625c.525,0 1.1313.3218 1.5312.96875 .3399.55-.08,1.00001-.9375,1s-1.5625-.44999-1.5625-1c0-.64696.4437-.96875.9688-.96875zm-20.2188.0625c1.0558.04763 1.2578.28821.5.59375-.691.27855-.9984.9032-.6875,1.40625 .6566,1.06237.0986,1.22369-.875.25-1.22196-1.22193-.70816-2.32991 1.0625-2.25zm26.25.90625c-.55,0-1,.70505-1,1.5625s.45,1.27743 1,.9375c1.2939-.79968 1.2939-2.49999 0-2.5zm-53.93746,10.46875c.6336-.08321.2364.80063-1.2187,2.6875-3.7216,4.82595-6.8697,4.79315-6.8125-.0625 .0264-2.23724.1798-2.35929 1.0625-.84375 1.2292,2.11037 3.7764,2.31072 4.5312.34375 .3003-.78248 1.2301-1.69983 2.0938-2.03125 .1327-.05093.2532-.08186.3437-.09375zm-17.0625,1.53125c.55,0 1,.19497 1,.4375s-.45.72259-1,1.0625-1,.14497-1-.4375 .45-1.06249 1-1.0625zm3.4688.5c.0576-.00521.119.08075.1875.25 .274.67703.2847,2.02705.0312,3s-.4797.40001-.5-1.25c-.0153-1.2375.1083-1.98438.2813-2zm-126.2813.5c.4583,0 .8125.67501.8125,1.5s-.3542,1.50001-.8125,1.5-.8437-.67499-.8437-1.5c0-.825.3854-1.49999.8437-1.5zm111.2188,1.34375c.3585-.06029.5937.15691.5937.59375 0,.58246-.45,1.06251-1,1.0625-1.2814,0-1.2814-.70805 0-1.5 .1375-.08498.2867-.13615.4063-.15625zm-92.9063,1c.7766,0 1.1895.3854.9063.84375-.6516,1.05421-1.1298,1.0542-1.7813,0-.2833-.45834.0984-.84372.875-.84375zm100.75.53125c2.1762-.01709 2.75.32586 2.75,1.21875 0,.67915-1.1125.82082-3,.40625-1.7176-.37725-3-.24056-3,.3125 0,.53127-1.35,1.16408-3,1.40625s-3,.09164-3-.34375c0-1.23144 3.1935-2.64768 6.5-2.875 1.1187-.07691 2.0246-.1193 2.75-.125zm-115.4375,2.15625c1.2876-.00854 2.0321.41113 1.6875.96875-.7432,1.2025-.6393,1.20251-2.5,0-1.2068-.77988-1.0451-.95643.8125-.96875zm4.4375,0c.9625-.00842 1.75.41876 1.75.96875 0,1.21961-.1128,1.21962-2,0-1.2819-.82843-1.2456-.95566.25-.96875zm6.3438.625c.4535-.03719 1.0507.39847 1.9062,1.34375 1.3859,1.5314 1.4695,2.01161.4063,2-2.3055-.02513-3.8568-1.44558-3.0313-2.78125 .2161-.34956.4466-.54018.7188-.5625zm75.4062,1.40625c.825-.01107 2.1597.39459 2.9688.90625 2.4445,1.54599.7162,1.98595-1.9688.5-1.4485-.80164-1.8696-1.39461-1-1.40625zm14.125.40625c1.5827.02104 2.875.36758 2.875.78125s-.627.75001-1.4062.75-1.5648.47581-1.75,1.03125-.8504.17769-1.4688-.8125c-.9862-1.57918-.7741-1.78357 1.75-1.75zm-23.125.53125c.55,0 1,.19497 1,.4375s-.45.72259-1,1.0625-1,.14497-1-.4375 .45-1.06249 1-1.0625zm19.1875,1c.6416,0 .8619.29434.5.65625s-.175,1.26188.4375,2c.7003.84375.7635,1.34376.125,1.34375-.5585,0-1.2912-.6925-1.625-1.5625-.8345-2.17476-.7754-2.43749.5625-2.4375zm-12.75.34375c.3267-.02425.5625.23778.5625.71875 0,.67026.7128.89333 1.6563.53125 1.2973-.49781 1.3952-.32873.5.75-.623.75069-.8307,1.63808-.4688,2s-.0834.65626-1,.65625-1.7079-.11249-1.75-.25c-.6325-2.06682-.5731-3.83046.1563-4.28125 .1252-.07741.2348-.11692.3437-.125zm109.90626,1.125c-.4078.08776-.4197.58746.125,1.46875 .3625.58659 1.4137,1.04875 2.3437,1.03125 1.4847-.02793 1.4731-.18876-.2187-1.46875-1.0276-.77738-1.8422-1.11901-2.25-1.03125zm4,22.9375c.4288-.06562.8834.14051 1.125.53125 .322.52097.1459,1.20929-.375,1.53125s-1.2093.14594-1.5313-.375-.1772-1.20928.3438-1.53125c.1302-.0805.2945-.13438.4375-.15625zm5.1875.375c-.6858.12813-.7099,1.29223.5,2.75 .6643.80045 1.6327,1.19856 2.1562.875 .5332-.32957.1588-1.45467-.8437-2.5625-.7563-.83565-1.4011-1.13938-1.8125-1.0625zm-208.34376.4375c.1995-.07262.5515.11403 1,.5625 .6508.65084.9404,1.43459.6563,1.71875-.6674.66739-1.8438-.50899-1.8438-1.84375 0-.23498.0678-.39393.1875-.4375zm-6,2c-.1197.04357-.1875.20252-.1875.4375 0,.56834.3208,1.32087.6875,1.6875s.8721.44042 1.1563.15625-.0055-1.0679-.6563-1.71875c-.4485-.44848-.8005-.63511-1-.5625zm28.0938,1.90625c.0843-.08433.3499.13487.8437.625 .6834.67834.9954,1.47334.6875,1.78125s-.8745-.23254-1.25-1.21875c-.2713-.7126-.3656-1.10317-.2812-1.1875zm180.65616.875c.5825,0 1.0625.45001 1.0625,1 0,1.28138-.7081,1.28139-1.5,0-.3399-.55-.145-.99999.4375-1zm-98.53116,4.09375c.1644-.06015.5259.06335 1.0937.28125 .9306.35709 2.7698.91773 4.0938,1.25 2.6161.65659 3.3464,3.37501.9062,3.375-.825,0-1.5.66101-1.5,1.46875 0,.92752-.5648,1.25784-1.5625.875-1.2536-.48105-1.5116-.01023-1.25,2.28125 .1956,1.71332-.2975,3.36077-1.1875,4.0625-1.2165.95919-1.2528,1.42067-.2187,2.46875 1.0147,1.02847 1.6882,1.06902 3.25.09375 1.943-1.21344 1.9239-1.20878.0625,3-1.0339,2.33778-2.7244,7.1031-3.75,10.59375-1.8375,6.25299-1.8874,6.33272-3.6875,4.34375-2.7489-3.03756-6.9399-17.38104-5.375-18.375 1.4543-.92369 2.5826-1.10281 5.0625-.84375 1.5464.16154 1.7238-.33094 1.25-3.3125-.5233-3.29309-.3485-3.60433 2.9062-4.78125 1.9112-.69112 3.1569-1.5085 2.75-1.8125s-1.3519-1.62027-2.0937-2.9375c-.7546-1.33962-1.0242-1.931-.75-2.03125zm-76.5313,1.90625c.55,0 1.2851.45001 1.625,1s.175,1.00001-.375,1-1.2851-.44999-1.625-1-.175-.99999.375-1zm172.87496,3.5625c-.9219.21918-1.1063,1.73745-.0625,2.78125 1.1212,1.12122 2.3125.75149 2.3125-.71875 0-.76616-.675-1.65215-1.5-1.96875-.2819-.10818-.5373-.14433-.75-.09375zm-14.4687,4.40625c.3239-.02655.7153.23146 1.0937.84375 .2712.43876.1562,1.38605-.2812,2.09375-.5799.93825-.9464.70744-1.3438-.8125-.3287-1.25706-.0086-2.08075.5313-2.125zm-61.03126,4.1875c.4258-.03097.75.16335.75.65625 0,.53699-.6916,1.25955-1.5625,1.59375-.974.37373-1.4311.13702-1.1875-.59375 .3114-.93428 1.2904-1.60464 2-1.65625zm34.6875,1.84375c.5825,0 1.0625.45001 1.0625,1 0,1.28138-.7081,1.28139-1.5,0-.3399-.55-.145-.99999.4375-1zm-62.25.25c-2.2038.11963-2.3594,1.77003.3125,2.46875 1.1.28766 2,.9204 2,1.40625s.4742.87501 1.0625.875 .9257-.96245.75-2.15625c-.2221-1.50859-1.1511-2.27852-3.0625-2.53125-.3964-.05242-.7477-.07959-1.0625-.0625zm-28.625,7.84375c.1535,0 .8078.4998 2.1563,1.46875 1.4952,1.07439 2.7327,2.27501 2.75,2.6875 .0595,1.42113-1.746.2073-3.9688-2.6875-.744-.96896-1.091-1.46875-.9375-1.46875zm71.125,2.90625c-.5262,0-1.2041.93108-1.5,2.0625-.3422,1.30858-.0888,1.93558.6563,1.6875 1.4383-.47887 2.1713-3.74999.8437-3.75zm-78.5312,3.25c.2476-.09418.336.36286.3437,1.5 .0084,1.2375-.45,2.25001-1,2.25-1.2529,0-1.2529-1.06123 0-3 .294-.45486.5077-.69349.6563-.75z"/>
 </g>
</svg>
